<svg width="21" height="26" viewBox="0 0 21 26" fill="none" xmlns="http://www.w3.org/2000/svg">
<path d="M1.656 4.688V9.812C1.656 9.948 1.68 10.04 1.728 10.088C1.776 10.136 1.872 10.16 2.016 10.16H2.352V11.012H1.68C1.296 11.012 1.012 10.924 0.828 10.748C0.652 10.564 0.564 10.296 0.564 9.944V4.544C0.564 4.2 0.652 3.94 0.828 3.764C1.012 3.58 1.296 3.488 1.68 3.488H2.424V4.34H2.016C1.872 4.34 1.776 4.364 1.728 4.412C1.68 4.452 1.656 4.544 1.656 4.688ZM2.976 5.84V4.688C2.976 4.544 2.952 4.452 2.904 4.412C2.864 4.364 2.772 4.34 2.628 4.34H2.232V3.488H2.952C3.344 3.488 3.628 3.58 3.804 3.764C3.988 3.94 4.08 4.2 4.08 4.544V5.84H2.976ZM2.976 9.812V8.672H4.08V9.944C4.08 10.296 3.988 10.564 3.804 10.748C3.628 10.924 3.344 11.012 2.952 11.012H2.232V10.16H2.628C2.772 10.16 2.864 10.136 2.904 10.088C2.952 10.04 2.976 9.948 2.976 9.812ZM8.38744 11H7.30744V6.368C7.30744 6.224 7.28344 6.132 7.23544 6.092C7.18744 6.044 7.09144 6.02 6.94744 6.02H6.52744C6.39144 6.02 6.29144 6.052 6.22744 6.116C6.16344 6.18 6.13144 6.288 6.13144 6.44V6.8H6.08344V5.96C6.08344 5.672 6.15544 5.464 6.29944 5.336C6.44344 5.208 6.63544 5.144 6.87544 5.144H7.30744C7.67544 5.144 7.94744 5.236 8.12344 5.42C8.29944 5.596 8.38744 5.86 8.38744 6.212V11ZM6.13144 11H5.05144V2.972H6.13144V11ZM10.4423 8.276H9.36225V6.212C9.36225 5.86 9.45025 5.596 9.62625 5.42C9.80225 5.236 10.0743 5.144 10.4423 5.144H10.8743C11.1143 5.144 11.3063 5.208 11.4503 5.336C11.5943 5.464 11.6663 5.672 11.6663 5.96V6.764H11.6183V6.44C11.6183 6.288 11.5863 6.18 11.5223 6.116C11.4583 6.052 11.3583 6.02 11.2223 6.02H10.8023C10.6583 6.02 10.5623 6.044 10.5143 6.092C10.4663 6.132 10.4423 6.224 10.4423 6.368V8.276ZM12.6983 11H11.6183V5.984V5.9V5.144H12.6983V11ZM9.36225 7.868H10.4423V9.776C10.4423 9.912 10.4663 10.004 10.5143 10.052C10.5623 10.1 10.6583 10.124 10.8023 10.124H11.2223C11.3583 10.124 11.4583 10.096 11.5223 10.04C11.5863 9.976 11.6183 9.864 11.6183 9.704V9.392H11.6663V10.184C11.6663 10.472 11.5943 10.68 11.4503 10.808C11.3063 10.936 11.1143 11 10.8743 11H10.4423C10.0743 11 9.80225 10.912 9.62625 10.736C9.45025 10.552 9.36225 10.288 9.36225 9.944V7.868Z" fill="black"/>
<path d="M3.3 12.488H4.296V20H3.204L1.62 14.588V20H0.624V12.488H1.764L3.3 17.756V12.488ZM7.82588 18.08V15.356C7.82588 15.204 7.80188 15.108 7.75388 15.068C7.71388 15.02 7.61788 14.996 7.46588 14.996H7.10588V14.144H7.77788C8.16988 14.144 8.45388 14.236 8.62988 14.42C8.80588 14.596 8.89388 14.86 8.89388 15.212V18.08H7.82588ZM7.82588 18.788V17.576H8.89388V18.944C8.89388 19.288 8.80588 19.552 8.62988 19.736C8.45388 19.912 8.16988 20 7.77788 20H7.04588V19.148H7.46588C7.61788 19.148 7.71388 19.124 7.75388 19.076C7.80188 19.028 7.82588 18.932 7.82588 18.788ZM6.45788 15.356V18.092H5.38988V15.212C5.38988 14.86 5.47788 14.596 5.65388 14.42C5.82988 14.236 6.10988 14.144 6.49388 14.144H7.17788V14.996H6.81788C6.67388 14.996 6.57788 15.02 6.52988 15.068C6.48188 15.108 6.45788 15.204 6.45788 15.356ZM6.45788 17.504V18.788C6.45788 18.932 6.48188 19.028 6.52988 19.076C6.57788 19.124 6.67388 19.148 6.81788 19.148H7.14188V20H6.49388C6.10988 20 5.82988 19.912 5.65388 19.736C5.47788 19.552 5.38988 19.288 5.38988 18.944V17.504H6.45788ZM11.0673 13.148V18.728C11.0673 18.864 11.0913 18.956 11.1393 19.004C11.1873 19.052 11.2793 19.076 11.4153 19.076H11.8713V20H11.1033C10.7113 20 10.4233 19.912 10.2393 19.736C10.0633 19.552 9.97528 19.288 9.97528 18.944V13.148H11.0673ZM11.8713 14.144V15.02H9.42328V14.144H11.8713ZM13.5483 15.344V18.8C13.5483 18.936 13.5723 19.028 13.6203 19.076C13.6683 19.124 13.7643 19.148 13.9083 19.148H14.2083V20H13.6083C13.2243 20 12.9403 19.912 12.7563 19.736C12.5803 19.552 12.4923 19.288 12.4923 18.944V15.212C12.4923 14.86 12.5803 14.596 12.7563 14.42C12.9403 14.236 13.2243 14.144 13.6083 14.144H14.2683V14.996H13.9083C13.7643 14.996 13.6683 15.02 13.6203 15.068C13.5723 15.108 13.5483 15.2 13.5483 15.344ZM14.8443 17.252V15.344C14.8443 15.2 14.8203 15.108 14.7723 15.068C14.7323 15.02 14.6403 14.996 14.4963 14.996H14.1123V14.144H14.7843C15.1763 14.144 15.4603 14.236 15.6363 14.42C15.8203 14.596 15.9123 14.86 15.9123 15.212V17.252H14.8443ZM14.8203 18.788V18.308H15.8763V18.944C15.8763 19.288 15.7883 19.552 15.6123 19.736C15.4363 19.912 15.1523 20 14.7603 20H14.1123V19.148H14.4603C14.6123 19.148 14.7083 19.124 14.7483 19.076C14.7963 19.028 14.8203 18.932 14.8203 18.788ZM15.9123 16.616V17.408H12.8763V16.616H15.9123ZM18.7965 18.824V17.852C18.7965 17.708 18.7725 17.616 18.7245 17.576C18.6845 17.528 18.5885 17.504 18.4365 17.504H17.8245C17.4325 17.504 17.1485 17.416 16.9725 17.24C16.7965 17.056 16.7085 16.792 16.7085 16.448V15.212C16.7085 14.86 16.7965 14.596 16.9725 14.42C17.1565 14.236 17.4405 14.144 17.8245 14.144H18.7005C19.0925 14.144 19.3765 14.236 19.5525 14.42C19.7365 14.596 19.8285 14.86 19.8285 15.212V15.776H18.7725V15.32C18.7725 15.176 18.7485 15.084 18.7005 15.044C18.6605 14.996 18.5645 14.972 18.4125 14.972H18.1245C17.9805 14.972 17.8845 14.996 17.8365 15.044C17.7885 15.084 17.7645 15.176 17.7645 15.32V16.328C17.7645 16.472 17.7885 16.568 17.8365 16.616C17.8845 16.656 17.9805 16.676 18.1245 16.676H18.7485C19.1325 16.676 19.4125 16.768 19.5885 16.952C19.7645 17.128 19.8525 17.392 19.8525 17.744V18.944C19.8525 19.288 19.7605 19.552 19.5765 19.736C19.4005 19.912 19.1205 20 18.7365 20H17.8485C17.4645 20 17.1805 19.912 16.9965 19.736C16.8205 19.552 16.7325 19.288 16.7325 18.944V18.368H17.8005V18.824C17.8005 18.96 17.8245 19.052 17.8725 19.1C17.9205 19.148 18.0125 19.172 18.1485 19.172H18.4365C18.5885 19.172 18.6845 19.148 18.7245 19.1C18.7725 19.052 18.7965 18.96 18.7965 18.824Z" fill="black"/>
</svg>
